M48
; DRILL file {KiCad 7.0.11-7.0.11~ubuntu20.04.1} date tor 20 avg 2024 19:22:26
; FORMAT={-:-/ absolute / metric / decimal}
; #@! TF.CreationDate,2024-08-20T19:22:26+02:00
; #@! TF.GenerationSoftware,Kicad,Pcbnew,7.0.11-7.0.11~ubuntu20.04.1
; #@! TF.FileFunction,Plated,1,2,PTH
FMAT,2
METRIC
; #@! TA.AperFunction,Plated,PTH,ComponentDrill
T1C1.000
%
G90
G05
T1
X114.3Y-73.66
X114.3Y-76.2
X114.3Y-87.63
X114.3Y-90.17
X116.84Y-73.66
X116.84Y-76.2
X116.84Y-87.63
X116.84Y-90.17
X119.38Y-73.66
X119.38Y-76.2
X119.38Y-87.63
X119.38Y-90.17
X121.92Y-73.66
X121.92Y-76.2
X121.92Y-87.63
X121.92Y-90.17
X124.46Y-73.66
X124.46Y-76.2
X124.46Y-87.63
X124.46Y-90.17
X127.0Y-73.66
X127.0Y-76.2
X127.0Y-87.63
X127.0Y-90.17
M30
