G04 #@! TF.GenerationSoftware,KiCad,Pcbnew,7.0.11-7.0.11~ubuntu20.04.1*
G04 #@! TF.CreationDate,2024-08-20T19:22:15+02:00*
G04 #@! TF.ProjectId,kicad-pmod-ext,6b696361-642d-4706-9d6f-642d6578742e,1.0*
G04 #@! TF.SameCoordinates,Original*
G04 #@! TF.FileFunction,Copper,L2,Bot*
G04 #@! TF.FilePolarity,Positive*
%FSLAX46Y46*%
G04 Gerber Fmt 4.6, Leading zero omitted, Abs format (unit mm)*
G04 Created by KiCad (PCBNEW 7.0.11-7.0.11~ubuntu20.04.1) date 2024-08-20 19:22:15*
%MOMM*%
%LPD*%
G01*
G04 APERTURE LIST*
G04 #@! TA.AperFunction,ComponentPad*
%ADD10R,1.700000X1.700000*%
G04 #@! TD*
G04 #@! TA.AperFunction,ComponentPad*
%ADD11O,1.700000X1.700000*%
G04 #@! TD*
G04 #@! TA.AperFunction,Conductor*
%ADD12C,0.750000*%
G04 #@! TD*
G04 #@! TA.AperFunction,Conductor*
%ADD13C,0.250000*%
G04 #@! TD*
G04 APERTURE END LIST*
D10*
X127000000Y-76200000D03*
D11*
X127000000Y-73660000D03*
X124460000Y-76200000D03*
X124460000Y-73660000D03*
X121920000Y-76200000D03*
X121920000Y-73660000D03*
X119380000Y-76200000D03*
X119380000Y-73660000D03*
X116840000Y-76200000D03*
X116840000Y-73660000D03*
X114300000Y-76200000D03*
X114300000Y-73660000D03*
D10*
X127000000Y-90170000D03*
D11*
X127000000Y-87630000D03*
X124460000Y-90170000D03*
X124460000Y-87630000D03*
X121920000Y-90170000D03*
X121920000Y-87630000D03*
X119380000Y-90170000D03*
X119380000Y-87630000D03*
X116840000Y-90170000D03*
X116840000Y-87630000D03*
X114300000Y-90170000D03*
X114300000Y-87630000D03*
D12*
X116840000Y-90170000D02*
X116840000Y-73660000D01*
D13*
X127000000Y-76200000D02*
X127000000Y-87630000D01*
X127000000Y-73660000D02*
X125730000Y-74930000D01*
X125730000Y-88900000D02*
X127000000Y-90170000D01*
X125730000Y-74930000D02*
X125730000Y-88900000D01*
X124460000Y-87630000D02*
X124460000Y-76200000D01*
X123190000Y-88900000D02*
X124460000Y-90170000D01*
X123190000Y-74930000D02*
X123190000Y-88900000D01*
X124460000Y-73660000D02*
X123190000Y-74930000D01*
X121920000Y-87630000D02*
X121920000Y-76200000D01*
X120745000Y-74835000D02*
X120745000Y-88995000D01*
X120745000Y-88995000D02*
X121920000Y-90170000D01*
X121920000Y-73660000D02*
X120745000Y-74835000D01*
X119380000Y-87630000D02*
X119380000Y-76200000D01*
X118110000Y-88900000D02*
X119380000Y-90170000D01*
X119380000Y-73660000D02*
X118110000Y-74930000D01*
X118110000Y-74930000D02*
X118110000Y-88900000D01*
D12*
X114300000Y-73660000D02*
X114300000Y-90170000D01*
G04 #@! TA.AperFunction,Conductor*
G36*
X117090000Y-89734498D02*
G01*
X116982315Y-89685320D01*
X116875763Y-89670000D01*
X116804237Y-89670000D01*
X116697685Y-89685320D01*
X116590000Y-89734498D01*
X116590000Y-88065501D01*
X116697685Y-88114680D01*
X116804237Y-88130000D01*
X116875763Y-88130000D01*
X116982315Y-88114680D01*
X117090000Y-88065501D01*
X117090000Y-89734498D01*
G37*
G04 #@! TD.AperFunction*
G04 #@! TA.AperFunction,Conductor*
G36*
X117090000Y-77530633D02*
G01*
X117303483Y-77473433D01*
X117303486Y-77473432D01*
X117308086Y-77471287D01*
X117377163Y-77460790D01*
X117440949Y-77489304D01*
X117479193Y-77547778D01*
X117484500Y-77583665D01*
X117484500Y-86246334D01*
X117464815Y-86313373D01*
X117412011Y-86359128D01*
X117342853Y-86369072D01*
X117308096Y-86358716D01*
X117303497Y-86356571D01*
X117303486Y-86356567D01*
X117090000Y-86299364D01*
X117090000Y-87194498D01*
X116982315Y-87145320D01*
X116875763Y-87130000D01*
X116804237Y-87130000D01*
X116697685Y-87145320D01*
X116590000Y-87194498D01*
X116590000Y-86299364D01*
X116589999Y-86299364D01*
X116376513Y-86356567D01*
X116376507Y-86356570D01*
X116162422Y-86456399D01*
X116162420Y-86456400D01*
X115968926Y-86591886D01*
X115968920Y-86591891D01*
X115801891Y-86758920D01*
X115801890Y-86758922D01*
X115671880Y-86944595D01*
X115617303Y-86988219D01*
X115547804Y-86995412D01*
X115485450Y-86963890D01*
X115468730Y-86944594D01*
X115338494Y-86758597D01*
X115211819Y-86631922D01*
X115178334Y-86570599D01*
X115175500Y-86544241D01*
X115175500Y-77285758D01*
X115195185Y-77218719D01*
X115211819Y-77198077D01*
X115252414Y-77157482D01*
X115338495Y-77071401D01*
X115468730Y-76885405D01*
X115523307Y-76841781D01*
X115592805Y-76834587D01*
X115655160Y-76866110D01*
X115671879Y-76885405D01*
X115801890Y-77071078D01*
X115968917Y-77238105D01*
X116162421Y-77373600D01*
X116376507Y-77473429D01*
X116376516Y-77473433D01*
X116590000Y-77530634D01*
X116590000Y-76635501D01*
X116697685Y-76684680D01*
X116804237Y-76700000D01*
X116875763Y-76700000D01*
X116982315Y-76684680D01*
X117090000Y-76635501D01*
X117090000Y-77530633D01*
G37*
G04 #@! TD.AperFunction*
G04 #@! TA.AperFunction,Conductor*
G36*
X117090000Y-75764498D02*
G01*
X116982315Y-75715320D01*
X116875763Y-75700000D01*
X116804237Y-75700000D01*
X116697685Y-75715320D01*
X116590000Y-75764498D01*
X116590000Y-74095501D01*
X116697685Y-74144680D01*
X116804237Y-74160000D01*
X116875763Y-74160000D01*
X116982315Y-74144680D01*
X117090000Y-74095501D01*
X117090000Y-75764498D01*
G37*
G04 #@! TD.AperFunction*
G04 #@! TA.AperFunction,Conductor*
G36*
X128276912Y-69851278D02*
G01*
X128295299Y-69853350D01*
X128297404Y-69853607D01*
X128408499Y-69868233D01*
X128433249Y-69874126D01*
X128475803Y-69889017D01*
X128482255Y-69891480D01*
X128555533Y-69921833D01*
X128574028Y-69931387D01*
X128616975Y-69958372D01*
X128626481Y-69964985D01*
X128685274Y-70010098D01*
X128697469Y-70020793D01*
X128734205Y-70057529D01*
X128744900Y-70069724D01*
X128790013Y-70128517D01*
X128796630Y-70138029D01*
X128823607Y-70180962D01*
X128833172Y-70199478D01*
X128863510Y-70272722D01*
X128865990Y-70279219D01*
X128880869Y-70321740D01*
X128886767Y-70346510D01*
X128901381Y-70457517D01*
X128901661Y-70459801D01*
X128903720Y-70478085D01*
X128904500Y-70491959D01*
X128904500Y-97148039D01*
X128903721Y-97161915D01*
X128902239Y-97175065D01*
X128901662Y-97180186D01*
X128901381Y-97182481D01*
X128886767Y-97293488D01*
X128880869Y-97318258D01*
X128865990Y-97360779D01*
X128863510Y-97367276D01*
X128833172Y-97440520D01*
X128823604Y-97459042D01*
X128796630Y-97501969D01*
X128790013Y-97511481D01*
X128744900Y-97570274D01*
X128734205Y-97582469D01*
X128697469Y-97619205D01*
X128685274Y-97629900D01*
X128626481Y-97675013D01*
X128616969Y-97681630D01*
X128574042Y-97708604D01*
X128555520Y-97718172D01*
X128482276Y-97748510D01*
X128475779Y-97750990D01*
X128433258Y-97765869D01*
X128408488Y-97771767D01*
X128297481Y-97786381D01*
X128295187Y-97786662D01*
X128292503Y-97786964D01*
X128276914Y-97788720D01*
X128263040Y-97789500D01*
X113036960Y-97789500D01*
X113023083Y-97788720D01*
X113008203Y-97787044D01*
X113004813Y-97786662D01*
X113002517Y-97786381D01*
X112891510Y-97771767D01*
X112866740Y-97765869D01*
X112824219Y-97750990D01*
X112817722Y-97748510D01*
X112767748Y-97727810D01*
X112744475Y-97718170D01*
X112725962Y-97708607D01*
X112683029Y-97681630D01*
X112673517Y-97675013D01*
X112614724Y-97629900D01*
X112602529Y-97619205D01*
X112565793Y-97582469D01*
X112555098Y-97570274D01*
X112509985Y-97511481D01*
X112503368Y-97501969D01*
X112476387Y-97459028D01*
X112466833Y-97440533D01*
X112436480Y-97367255D01*
X112434017Y-97360803D01*
X112419126Y-97318249D01*
X112413233Y-97293499D01*
X112398607Y-97182404D01*
X112398350Y-97180299D01*
X112396278Y-97161912D01*
X112395500Y-97148037D01*
X112395500Y-95374334D01*
X119149500Y-95374334D01*
X119190429Y-95619616D01*
X119271169Y-95854802D01*
X119271172Y-95854811D01*
X119389524Y-96073506D01*
X119389526Y-96073509D01*
X119542262Y-96269744D01*
X119701744Y-96416557D01*
X119725217Y-96438166D01*
X119933393Y-96574173D01*
X120161118Y-96674063D01*
X120402175Y-96735107D01*
X120402179Y-96735108D01*
X120402181Y-96735108D01*
X120402186Y-96735109D01*
X120555589Y-96747819D01*
X120587933Y-96750500D01*
X120587937Y-96750500D01*
X120712063Y-96750500D01*
X120712067Y-96750500D01*
X120774677Y-96745311D01*
X120897813Y-96735109D01*
X120897816Y-96735108D01*
X120897821Y-96735108D01*
X121138881Y-96674063D01*
X121366607Y-96574173D01*
X121574785Y-96438164D01*
X121757738Y-96269744D01*
X121910474Y-96073509D01*
X122028828Y-95854810D01*
X122109571Y-95619614D01*
X122150500Y-95374335D01*
X122150500Y-95125665D01*
X122109571Y-94880386D01*
X122028828Y-94645190D01*
X121910474Y-94426491D01*
X121757738Y-94230256D01*
X121574785Y-94061836D01*
X121574782Y-94061833D01*
X121366606Y-93925826D01*
X121138881Y-93825936D01*
X120897824Y-93764892D01*
X120897813Y-93764890D01*
X120712077Y-93749500D01*
X120712067Y-93749500D01*
X120587933Y-93749500D01*
X120587922Y-93749500D01*
X120402186Y-93764890D01*
X120402175Y-93764892D01*
X120161118Y-93825936D01*
X119933393Y-93925826D01*
X119725217Y-94061833D01*
X119542261Y-94230257D01*
X119389524Y-94426493D01*
X119271172Y-94645188D01*
X119271169Y-94645197D01*
X119190429Y-94880383D01*
X119149500Y-95125665D01*
X119149500Y-95374334D01*
X112395500Y-95374334D01*
X112395500Y-90170000D01*
X112944341Y-90170000D01*
X112964936Y-90405403D01*
X112964938Y-90405413D01*
X113026094Y-90633655D01*
X113026096Y-90633659D01*
X113026097Y-90633663D01*
X113105801Y-90804588D01*
X113125965Y-90847830D01*
X113125967Y-90847834D01*
X113234281Y-91002521D01*
X113261505Y-91041401D01*
X113428599Y-91208495D01*
X113525384Y-91276265D01*
X113622165Y-91344032D01*
X113622167Y-91344033D01*
X113622170Y-91344035D01*
X113836337Y-91443903D01*
X114064592Y-91505063D01*
X114241034Y-91520500D01*
X114299999Y-91525659D01*
X114300000Y-91525659D01*
X114300001Y-91525659D01*
X114358966Y-91520500D01*
X114535408Y-91505063D01*
X114763663Y-91443903D01*
X114977830Y-91344035D01*
X115171401Y-91208495D01*
X115338495Y-91041401D01*
X115468730Y-90855405D01*
X115523307Y-90811781D01*
X115592805Y-90804587D01*
X115655160Y-90836110D01*
X115671879Y-90855405D01*
X115801890Y-91041078D01*
X115968917Y-91208105D01*
X116162421Y-91343600D01*
X116376507Y-91443429D01*
X116376516Y-91443433D01*
X116590000Y-91500634D01*
X116590000Y-90605501D01*
X116697685Y-90654680D01*
X116804237Y-90670000D01*
X116875763Y-90670000D01*
X116982315Y-90654680D01*
X117090000Y-90605501D01*
X117090000Y-91500633D01*
X117303483Y-91443433D01*
X117303492Y-91443429D01*
X117517578Y-91343600D01*
X117711082Y-91208105D01*
X117878105Y-91041082D01*
X118008119Y-90855405D01*
X118062696Y-90811781D01*
X118132195Y-90804588D01*
X118194549Y-90836110D01*
X118211269Y-90855405D01*
X118341505Y-91041401D01*
X118508599Y-91208495D01*
X118605384Y-91276265D01*
X118702165Y-91344032D01*
X118702167Y-91344033D01*
X118702170Y-91344035D01*
X118916337Y-91443903D01*
X119144592Y-91505063D01*
X119321034Y-91520500D01*
X119379999Y-91525659D01*
X119380000Y-91525659D01*
X119380001Y-91525659D01*
X119438966Y-91520500D01*
X119615408Y-91505063D01*
X119843663Y-91443903D01*
X120057830Y-91344035D01*
X120251401Y-91208495D01*
X120418495Y-91041401D01*
X120548425Y-90855842D01*
X120603002Y-90812217D01*
X120672500Y-90805023D01*
X120734855Y-90836546D01*
X120751575Y-90855842D01*
X120881500Y-91041395D01*
X120881505Y-91041401D01*
X121048599Y-91208495D01*
X121145384Y-91276265D01*
X121242165Y-91344032D01*
X121242167Y-91344033D01*
X121242170Y-91344035D01*
X121456337Y-91443903D01*
X121684592Y-91505063D01*
X121861034Y-91520500D01*
X121919999Y-91525659D01*
X121920000Y-91525659D01*
X121920001Y-91525659D01*
X121978966Y-91520500D01*
X122155408Y-91505063D01*
X122383663Y-91443903D01*
X122597830Y-91344035D01*
X122791401Y-91208495D01*
X122958495Y-91041401D01*
X123088425Y-90855842D01*
X123143002Y-90812217D01*
X123212500Y-90805023D01*
X123274855Y-90836546D01*
X123291575Y-90855842D01*
X123421500Y-91041395D01*
X123421505Y-91041401D01*
X123588599Y-91208495D01*
X123685384Y-91276265D01*
X123782165Y-91344032D01*
X123782167Y-91344033D01*
X123782170Y-91344035D01*
X123996337Y-91443903D01*
X124224592Y-91505063D01*
X124401034Y-91520500D01*
X124459999Y-91525659D01*
X124460000Y-91525659D01*
X124460001Y-91525659D01*
X124518966Y-91520500D01*
X124695408Y-91505063D01*
X124923663Y-91443903D01*
X125137830Y-91344035D01*
X125331401Y-91208495D01*
X125453329Y-91086566D01*
X125514648Y-91053084D01*
X125584340Y-91058068D01*
X125640274Y-91099939D01*
X125657189Y-91130917D01*
X125706202Y-91262328D01*
X125706206Y-91262335D01*
X125792452Y-91377544D01*
X125792455Y-91377547D01*
X125907664Y-91463793D01*
X125907671Y-91463797D01*
X126042517Y-91514091D01*
X126042516Y-91514091D01*
X126049444Y-91514835D01*
X126102127Y-91520500D01*
X127897872Y-91520499D01*
X127957483Y-91514091D01*
X128092331Y-91463796D01*
X128207546Y-91377546D01*
X128293796Y-91262331D01*
X128344091Y-91127483D01*
X128350500Y-91067873D01*
X128350499Y-89272128D01*
X128344091Y-89212517D01*
X128340814Y-89203732D01*
X128293797Y-89077671D01*
X128293793Y-89077664D01*
X128207547Y-88962455D01*
X128207544Y-88962452D01*
X128092335Y-88876206D01*
X128092328Y-88876202D01*
X127960917Y-88827189D01*
X127904983Y-88785318D01*
X127880566Y-88719853D01*
X127895418Y-88651580D01*
X127916563Y-88623332D01*
X128038495Y-88501401D01*
X128174035Y-88307830D01*
X128273903Y-88093663D01*
X128335063Y-87865408D01*
X128355659Y-87630000D01*
X128335063Y-87394592D01*
X128273903Y-87166337D01*
X128174035Y-86952171D01*
X128168731Y-86944595D01*
X128038494Y-86758597D01*
X127871402Y-86591506D01*
X127871401Y-86591505D01*
X127738093Y-86498161D01*
X127678376Y-86456347D01*
X127634751Y-86401770D01*
X127625500Y-86354772D01*
X127625500Y-77674499D01*
X127645185Y-77607460D01*
X127697989Y-77561705D01*
X127749500Y-77550499D01*
X127897871Y-77550499D01*
X127897872Y-77550499D01*
X127957483Y-77544091D01*
X128092331Y-77493796D01*
X128207546Y-77407546D01*
X128293796Y-77292331D01*
X128344091Y-77157483D01*
X128350500Y-77097873D01*
X128350499Y-75302128D01*
X128344091Y-75242517D01*
X128315404Y-75165604D01*
X128293797Y-75107671D01*
X128293793Y-75107664D01*
X128207547Y-74992455D01*
X128207544Y-74992452D01*
X128092335Y-74906206D01*
X128092328Y-74906202D01*
X127960917Y-74857189D01*
X127904983Y-74815318D01*
X127880566Y-74749853D01*
X127895418Y-74681580D01*
X127916563Y-74653332D01*
X128038495Y-74531401D01*
X128174035Y-74337830D01*
X128273903Y-74123663D01*
X128335063Y-73895408D01*
X128355659Y-73660000D01*
X128335063Y-73424592D01*
X128273903Y-73196337D01*
X128174035Y-72982171D01*
X128168731Y-72974595D01*
X128038494Y-72788597D01*
X127871402Y-72621506D01*
X127871395Y-72621501D01*
X127677834Y-72485967D01*
X127677830Y-72485965D01*
X127677828Y-72485964D01*
X127463663Y-72386097D01*
X127463659Y-72386096D01*
X127463655Y-72386094D01*
X127235413Y-72324938D01*
X127235403Y-72324936D01*
X127000001Y-72304341D01*
X126999999Y-72304341D01*
X126764596Y-72324936D01*
X126764586Y-72324938D01*
X126536344Y-72386094D01*
X126536335Y-72386098D01*
X126322171Y-72485964D01*
X126322169Y-72485965D01*
X126128597Y-72621505D01*
X125961505Y-72788597D01*
X125831575Y-72974158D01*
X125776998Y-73017783D01*
X125707500Y-73024977D01*
X125645145Y-72993454D01*
X125628425Y-72974158D01*
X125498494Y-72788597D01*
X125331402Y-72621506D01*
X125331395Y-72621501D01*
X125137834Y-72485967D01*
X125137830Y-72485965D01*
X125137828Y-72485964D01*
X124923663Y-72386097D01*
X124923659Y-72386096D01*
X124923655Y-72386094D01*
X124695413Y-72324938D01*
X124695403Y-72324936D01*
X124460001Y-72304341D01*
X124459999Y-72304341D01*
X124224596Y-72324936D01*
X124224586Y-72324938D01*
X123996344Y-72386094D01*
X123996335Y-72386098D01*
X123782171Y-72485964D01*
X123782169Y-72485965D01*
X123588597Y-72621505D01*
X123421505Y-72788597D01*
X123291575Y-72974158D01*
X123236998Y-73017783D01*
X123167500Y-73024977D01*
X123105145Y-72993454D01*
X123088425Y-72974158D01*
X122958494Y-72788597D01*
X122791402Y-72621506D01*
X122791395Y-72621501D01*
X122597834Y-72485967D01*
X122597830Y-72485965D01*
X122597828Y-72485964D01*
X122383663Y-72386097D01*
X122383659Y-72386096D01*
X122383655Y-72386094D01*
X122155413Y-72324938D01*
X122155403Y-72324936D01*
X121920001Y-72304341D01*
X121919999Y-72304341D01*
X121684596Y-72324936D01*
X121684586Y-72324938D01*
X121456344Y-72386094D01*
X121456335Y-72386098D01*
X121242171Y-72485964D01*
X121242169Y-72485965D01*
X121048597Y-72621505D01*
X120881505Y-72788597D01*
X120751575Y-72974158D01*
X120696998Y-73017783D01*
X120627500Y-73024977D01*
X120565145Y-72993454D01*
X120548425Y-72974158D01*
X120418494Y-72788597D01*
X120251402Y-72621506D01*
X120251395Y-72621501D01*
X120057834Y-72485967D01*
X120057830Y-72485965D01*
X120057828Y-72485964D01*
X119843663Y-72386097D01*
X119843659Y-72386096D01*
X119843655Y-72386094D01*
X119615413Y-72324938D01*
X119615403Y-72324936D01*
X119380001Y-72304341D01*
X119379999Y-72304341D01*
X119144596Y-72324936D01*
X119144586Y-72324938D01*
X118916344Y-72386094D01*
X118916335Y-72386098D01*
X118702171Y-72485964D01*
X118702169Y-72485965D01*
X118508597Y-72621505D01*
X118341508Y-72788594D01*
X118211269Y-72974595D01*
X118156692Y-73018219D01*
X118087193Y-73025412D01*
X118024839Y-72993890D01*
X118008119Y-72974594D01*
X117878113Y-72788926D01*
X117878108Y-72788920D01*
X117711082Y-72621894D01*
X117517578Y-72486399D01*
X117303492Y-72386570D01*
X117303486Y-72386567D01*
X117090000Y-72329364D01*
X117090000Y-73224498D01*
X116982315Y-73175320D01*
X116875763Y-73160000D01*
X116804237Y-73160000D01*
X116697685Y-73175320D01*
X116590000Y-73224498D01*
X116590000Y-72329364D01*
X116589999Y-72329364D01*
X116376513Y-72386567D01*
X116376507Y-72386570D01*
X116162422Y-72486399D01*
X116162420Y-72486400D01*
X115968926Y-72621886D01*
X115968920Y-72621891D01*
X115801891Y-72788920D01*
X115801890Y-72788922D01*
X115671880Y-72974595D01*
X115617303Y-73018219D01*
X115547804Y-73025412D01*
X115485450Y-72993890D01*
X115468730Y-72974594D01*
X115338494Y-72788597D01*
X115171402Y-72621506D01*
X115171395Y-72621501D01*
X114977834Y-72485967D01*
X114977830Y-72485965D01*
X114977828Y-72485964D01*
X114763663Y-72386097D01*
X114763659Y-72386096D01*
X114763655Y-72386094D01*
X114535413Y-72324938D01*
X114535403Y-72324936D01*
X114300001Y-72304341D01*
X114299999Y-72304341D01*
X114064596Y-72324936D01*
X114064586Y-72324938D01*
X113836344Y-72386094D01*
X113836335Y-72386098D01*
X113622171Y-72485964D01*
X113622169Y-72485965D01*
X113428597Y-72621505D01*
X113261505Y-72788597D01*
X113125965Y-72982169D01*
X113125964Y-72982171D01*
X113026098Y-73196335D01*
X113026094Y-73196344D01*
X112964938Y-73424586D01*
X112964936Y-73424596D01*
X112944341Y-73659999D01*
X112944341Y-73660000D01*
X112964936Y-73895403D01*
X112964938Y-73895413D01*
X113026094Y-74123655D01*
X113026096Y-74123659D01*
X113026097Y-74123663D01*
X113109155Y-74301781D01*
X113125965Y-74337830D01*
X113125967Y-74337834D01*
X113200456Y-74444214D01*
X113261501Y-74531396D01*
X113261506Y-74531402D01*
X113388181Y-74658077D01*
X113421666Y-74719400D01*
X113424500Y-74745758D01*
X113424500Y-75114241D01*
X113404815Y-75181280D01*
X113388181Y-75201922D01*
X113261505Y-75328597D01*
X113125965Y-75522169D01*
X113125964Y-75522171D01*
X113026098Y-75736335D01*
X113026094Y-75736344D01*
X112964938Y-75964586D01*
X112964936Y-75964596D01*
X112944341Y-76199999D01*
X112944341Y-76200000D01*
X112964936Y-76435403D01*
X112964938Y-76435413D01*
X113026094Y-76663655D01*
X113026096Y-76663659D01*
X113026097Y-76663663D01*
X113109155Y-76841781D01*
X113125965Y-76877830D01*
X113125967Y-76877834D01*
X113234281Y-77032521D01*
X113261501Y-77071396D01*
X113261506Y-77071402D01*
X113388181Y-77198077D01*
X113421666Y-77259400D01*
X113424500Y-77285758D01*
X113424500Y-86544241D01*
X113404815Y-86611280D01*
X113388181Y-86631922D01*
X113261505Y-86758597D01*
X113125965Y-86952169D01*
X113125964Y-86952171D01*
X113026098Y-87166335D01*
X113026094Y-87166344D01*
X112964938Y-87394586D01*
X112964936Y-87394596D01*
X112944341Y-87629999D01*
X112944341Y-87630000D01*
X112964936Y-87865403D01*
X112964938Y-87865413D01*
X113026094Y-88093655D01*
X113026096Y-88093659D01*
X113026097Y-88093663D01*
X113109155Y-88271781D01*
X113125965Y-88307830D01*
X113125967Y-88307834D01*
X113234281Y-88462521D01*
X113261501Y-88501396D01*
X113261506Y-88501402D01*
X113388181Y-88628077D01*
X113421666Y-88689400D01*
X113424500Y-88715758D01*
X113424500Y-89084241D01*
X113404815Y-89151280D01*
X113388181Y-89171922D01*
X113261505Y-89298597D01*
X113125965Y-89492169D01*
X113125964Y-89492171D01*
X113026098Y-89706335D01*
X113026094Y-89706344D01*
X112964938Y-89934586D01*
X112964936Y-89934596D01*
X112944341Y-90169999D01*
X112944341Y-90170000D01*
X112395500Y-90170000D01*
X112395500Y-70491961D01*
X112396279Y-70478086D01*
X112396281Y-70478069D01*
X112398353Y-70459670D01*
X112398599Y-70457659D01*
X112413234Y-70346496D01*
X112419125Y-70321754D01*
X112434025Y-70279172D01*
X112436470Y-70272767D01*
X112466837Y-70199456D01*
X112476381Y-70180980D01*
X112503385Y-70138003D01*
X112509969Y-70128538D01*
X112555112Y-70069707D01*
X112565778Y-70057545D01*
X112602545Y-70020778D01*
X112614707Y-70010112D01*
X112673538Y-69964969D01*
X112683003Y-69958385D01*
X112725980Y-69931381D01*
X112744456Y-69921837D01*
X112817767Y-69891470D01*
X112824172Y-69889025D01*
X112866754Y-69874125D01*
X112891496Y-69868234D01*
X113002659Y-69853599D01*
X113004670Y-69853353D01*
X113021591Y-69851447D01*
X113023087Y-69851279D01*
X113036962Y-69850500D01*
X128263037Y-69850500D01*
X128276912Y-69851278D01*
G37*
G04 #@! TD.AperFunction*
M02*
