G04 #@! TF.GenerationSoftware,KiCad,Pcbnew,7.0.11-7.0.11~ubuntu20.04.1*
G04 #@! TF.CreationDate,2024-08-20T19:22:15+02:00*
G04 #@! TF.ProjectId,kicad-pmod-ext,6b696361-642d-4706-9d6f-642d6578742e,1.0*
G04 #@! TF.SameCoordinates,Original*
G04 #@! TF.FileFunction,Legend,Top*
G04 #@! TF.FilePolarity,Positive*
%FSLAX46Y46*%
G04 Gerber Fmt 4.6, Leading zero omitted, Abs format (unit mm)*
G04 Created by KiCad (PCBNEW 7.0.11-7.0.11~ubuntu20.04.1) date 2024-08-20 19:22:15*
%MOMM*%
%LPD*%
G01*
G04 APERTURE LIST*
G04 Aperture macros list*
%AMRoundRect*
0 Rectangle with rounded corners*
0 $1 Rounding radius*
0 $2 $3 $4 $5 $6 $7 $8 $9 X,Y pos of 4 corners*
0 Add a 4 corners polygon primitive as box body*
4,1,4,$2,$3,$4,$5,$6,$7,$8,$9,$2,$3,0*
0 Add four circle primitives for the rounded corners*
1,1,$1+$1,$2,$3*
1,1,$1+$1,$4,$5*
1,1,$1+$1,$6,$7*
1,1,$1+$1,$8,$9*
0 Add four rect primitives between the rounded corners*
20,1,$1+$1,$2,$3,$4,$5,0*
20,1,$1+$1,$4,$5,$6,$7,0*
20,1,$1+$1,$6,$7,$8,$9,0*
20,1,$1+$1,$8,$9,$2,$3,0*%
G04 Aperture macros list end*
%ADD10C,0.100000*%
%ADD11C,0.120000*%
%ADD12C,0.150000*%
%ADD13C,2.500000*%
%ADD14R,1.700000X1.700000*%
%ADD15O,1.700000X1.700000*%
%ADD16RoundRect,0.237500X-0.250000X-0.237500X0.250000X-0.237500X0.250000X0.237500X-0.250000X0.237500X0*%
%ADD17RoundRect,0.237500X0.287500X0.237500X-0.287500X0.237500X-0.287500X-0.237500X0.287500X-0.237500X0*%
G04 APERTURE END LIST*
D10*
X112509476Y-78459133D02*
X113119000Y-78459133D01*
X112814238Y-78763895D02*
X112814238Y-78154371D01*
X113423761Y-77963895D02*
X113918999Y-77963895D01*
X113918999Y-77963895D02*
X113652333Y-78268657D01*
X113652333Y-78268657D02*
X113766618Y-78268657D01*
X113766618Y-78268657D02*
X113842809Y-78306752D01*
X113842809Y-78306752D02*
X113880904Y-78344847D01*
X113880904Y-78344847D02*
X113918999Y-78421038D01*
X113918999Y-78421038D02*
X113918999Y-78611514D01*
X113918999Y-78611514D02*
X113880904Y-78687704D01*
X113880904Y-78687704D02*
X113842809Y-78725800D01*
X113842809Y-78725800D02*
X113766618Y-78763895D01*
X113766618Y-78763895D02*
X113538047Y-78763895D01*
X113538047Y-78763895D02*
X113461856Y-78725800D01*
X113461856Y-78725800D02*
X113423761Y-78687704D01*
X114147571Y-77963895D02*
X114414238Y-78763895D01*
X114414238Y-78763895D02*
X114680904Y-77963895D01*
X114871380Y-77963895D02*
X115366618Y-77963895D01*
X115366618Y-77963895D02*
X115099952Y-78268657D01*
X115099952Y-78268657D02*
X115214237Y-78268657D01*
X115214237Y-78268657D02*
X115290428Y-78306752D01*
X115290428Y-78306752D02*
X115328523Y-78344847D01*
X115328523Y-78344847D02*
X115366618Y-78421038D01*
X115366618Y-78421038D02*
X115366618Y-78611514D01*
X115366618Y-78611514D02*
X115328523Y-78687704D01*
X115328523Y-78687704D02*
X115290428Y-78725800D01*
X115290428Y-78725800D02*
X115214237Y-78763895D01*
X115214237Y-78763895D02*
X114985666Y-78763895D01*
X114985666Y-78763895D02*
X114909475Y-78725800D01*
X114909475Y-78725800D02*
X114871380Y-78687704D01*
X116287618Y-78103561D02*
X116287618Y-78751180D01*
X116287618Y-78751180D02*
X116249523Y-78827371D01*
X116249523Y-78827371D02*
X116211427Y-78865466D01*
X116211427Y-78865466D02*
X116135237Y-78903561D01*
X116135237Y-78903561D02*
X116020951Y-78903561D01*
X116020951Y-78903561D02*
X115944761Y-78865466D01*
X116287618Y-78598800D02*
X116211427Y-78636895D01*
X116211427Y-78636895D02*
X116059046Y-78636895D01*
X116059046Y-78636895D02*
X115982856Y-78598800D01*
X115982856Y-78598800D02*
X115944761Y-78560704D01*
X115944761Y-78560704D02*
X115906665Y-78484514D01*
X115906665Y-78484514D02*
X115906665Y-78255942D01*
X115906665Y-78255942D02*
X115944761Y-78179752D01*
X115944761Y-78179752D02*
X115982856Y-78141657D01*
X115982856Y-78141657D02*
X116059046Y-78103561D01*
X116059046Y-78103561D02*
X116211427Y-78103561D01*
X116211427Y-78103561D02*
X116287618Y-78141657D01*
X116668571Y-78103561D02*
X116668571Y-78636895D01*
X116668571Y-78179752D02*
X116706666Y-78141657D01*
X116706666Y-78141657D02*
X116782856Y-78103561D01*
X116782856Y-78103561D02*
X116897142Y-78103561D01*
X116897142Y-78103561D02*
X116973333Y-78141657D01*
X116973333Y-78141657D02*
X117011428Y-78217847D01*
X117011428Y-78217847D02*
X117011428Y-78636895D01*
X117735238Y-78636895D02*
X117735238Y-77836895D01*
X117735238Y-78598800D02*
X117659047Y-78636895D01*
X117659047Y-78636895D02*
X117506666Y-78636895D01*
X117506666Y-78636895D02*
X117430476Y-78598800D01*
X117430476Y-78598800D02*
X117392381Y-78560704D01*
X117392381Y-78560704D02*
X117354285Y-78484514D01*
X117354285Y-78484514D02*
X117354285Y-78255942D01*
X117354285Y-78255942D02*
X117392381Y-78179752D01*
X117392381Y-78179752D02*
X117430476Y-78141657D01*
X117430476Y-78141657D02*
X117506666Y-78103561D01*
X117506666Y-78103561D02*
X117659047Y-78103561D01*
X117659047Y-78103561D02*
X117735238Y-78141657D01*
D11*
X113982042Y-93171379D02*
X113982042Y-92171379D01*
X113982042Y-92171379D02*
X114362994Y-92171379D01*
X114362994Y-92171379D02*
X114458232Y-92218998D01*
X114458232Y-92218998D02*
X114505851Y-92266617D01*
X114505851Y-92266617D02*
X114553470Y-92361855D01*
X114553470Y-92361855D02*
X114553470Y-92504712D01*
X114553470Y-92504712D02*
X114505851Y-92599950D01*
X114505851Y-92599950D02*
X114458232Y-92647569D01*
X114458232Y-92647569D02*
X114362994Y-92695188D01*
X114362994Y-92695188D02*
X113982042Y-92695188D01*
X114982042Y-93171379D02*
X114982042Y-92171379D01*
X114982042Y-92171379D02*
X115315375Y-92885664D01*
X115315375Y-92885664D02*
X115648708Y-92171379D01*
X115648708Y-92171379D02*
X115648708Y-93171379D01*
X116315375Y-92171379D02*
X116505851Y-92171379D01*
X116505851Y-92171379D02*
X116601089Y-92218998D01*
X116601089Y-92218998D02*
X116696327Y-92314236D01*
X116696327Y-92314236D02*
X116743946Y-92504712D01*
X116743946Y-92504712D02*
X116743946Y-92838045D01*
X116743946Y-92838045D02*
X116696327Y-93028521D01*
X116696327Y-93028521D02*
X116601089Y-93123760D01*
X116601089Y-93123760D02*
X116505851Y-93171379D01*
X116505851Y-93171379D02*
X116315375Y-93171379D01*
X116315375Y-93171379D02*
X116220137Y-93123760D01*
X116220137Y-93123760D02*
X116124899Y-93028521D01*
X116124899Y-93028521D02*
X116077280Y-92838045D01*
X116077280Y-92838045D02*
X116077280Y-92504712D01*
X116077280Y-92504712D02*
X116124899Y-92314236D01*
X116124899Y-92314236D02*
X116220137Y-92218998D01*
X116220137Y-92218998D02*
X116315375Y-92171379D01*
X117172518Y-93171379D02*
X117172518Y-92171379D01*
X117172518Y-92171379D02*
X117410613Y-92171379D01*
X117410613Y-92171379D02*
X117553470Y-92218998D01*
X117553470Y-92218998D02*
X117648708Y-92314236D01*
X117648708Y-92314236D02*
X117696327Y-92409474D01*
X117696327Y-92409474D02*
X117743946Y-92599950D01*
X117743946Y-92599950D02*
X117743946Y-92742807D01*
X117743946Y-92742807D02*
X117696327Y-92933283D01*
X117696327Y-92933283D02*
X117648708Y-93028521D01*
X117648708Y-93028521D02*
X117553470Y-93123760D01*
X117553470Y-93123760D02*
X117410613Y-93171379D01*
X117410613Y-93171379D02*
X117172518Y-93171379D01*
X118934423Y-92647569D02*
X119267756Y-92647569D01*
X119410613Y-93171379D02*
X118934423Y-93171379D01*
X118934423Y-93171379D02*
X118934423Y-92171379D01*
X118934423Y-92171379D02*
X119410613Y-92171379D01*
X119743947Y-93171379D02*
X120267756Y-92504712D01*
X119743947Y-92504712D02*
X120267756Y-93171379D01*
X120505852Y-92504712D02*
X120886804Y-92504712D01*
X120648709Y-92171379D02*
X120648709Y-93028521D01*
X120648709Y-93028521D02*
X120696328Y-93123760D01*
X120696328Y-93123760D02*
X120791566Y-93171379D01*
X120791566Y-93171379D02*
X120886804Y-93171379D01*
X121601090Y-93123760D02*
X121505852Y-93171379D01*
X121505852Y-93171379D02*
X121315376Y-93171379D01*
X121315376Y-93171379D02*
X121220138Y-93123760D01*
X121220138Y-93123760D02*
X121172519Y-93028521D01*
X121172519Y-93028521D02*
X121172519Y-92647569D01*
X121172519Y-92647569D02*
X121220138Y-92552331D01*
X121220138Y-92552331D02*
X121315376Y-92504712D01*
X121315376Y-92504712D02*
X121505852Y-92504712D01*
X121505852Y-92504712D02*
X121601090Y-92552331D01*
X121601090Y-92552331D02*
X121648709Y-92647569D01*
X121648709Y-92647569D02*
X121648709Y-92742807D01*
X121648709Y-92742807D02*
X121172519Y-92838045D01*
X122077281Y-92504712D02*
X122077281Y-93171379D01*
X122077281Y-92599950D02*
X122124900Y-92552331D01*
X122124900Y-92552331D02*
X122220138Y-92504712D01*
X122220138Y-92504712D02*
X122362995Y-92504712D01*
X122362995Y-92504712D02*
X122458233Y-92552331D01*
X122458233Y-92552331D02*
X122505852Y-92647569D01*
X122505852Y-92647569D02*
X122505852Y-93171379D01*
X122934424Y-93123760D02*
X123029662Y-93171379D01*
X123029662Y-93171379D02*
X123220138Y-93171379D01*
X123220138Y-93171379D02*
X123315376Y-93123760D01*
X123315376Y-93123760D02*
X123362995Y-93028521D01*
X123362995Y-93028521D02*
X123362995Y-92980902D01*
X123362995Y-92980902D02*
X123315376Y-92885664D01*
X123315376Y-92885664D02*
X123220138Y-92838045D01*
X123220138Y-92838045D02*
X123077281Y-92838045D01*
X123077281Y-92838045D02*
X122982043Y-92790426D01*
X122982043Y-92790426D02*
X122934424Y-92695188D01*
X122934424Y-92695188D02*
X122934424Y-92647569D01*
X122934424Y-92647569D02*
X122982043Y-92552331D01*
X122982043Y-92552331D02*
X123077281Y-92504712D01*
X123077281Y-92504712D02*
X123220138Y-92504712D01*
X123220138Y-92504712D02*
X123315376Y-92552331D01*
X123791567Y-93171379D02*
X123791567Y-92504712D01*
X123791567Y-92171379D02*
X123743948Y-92218998D01*
X123743948Y-92218998D02*
X123791567Y-92266617D01*
X123791567Y-92266617D02*
X123839186Y-92218998D01*
X123839186Y-92218998D02*
X123791567Y-92171379D01*
X123791567Y-92171379D02*
X123791567Y-92266617D01*
X124410614Y-93171379D02*
X124315376Y-93123760D01*
X124315376Y-93123760D02*
X124267757Y-93076140D01*
X124267757Y-93076140D02*
X124220138Y-92980902D01*
X124220138Y-92980902D02*
X124220138Y-92695188D01*
X124220138Y-92695188D02*
X124267757Y-92599950D01*
X124267757Y-92599950D02*
X124315376Y-92552331D01*
X124315376Y-92552331D02*
X124410614Y-92504712D01*
X124410614Y-92504712D02*
X124553471Y-92504712D01*
X124553471Y-92504712D02*
X124648709Y-92552331D01*
X124648709Y-92552331D02*
X124696328Y-92599950D01*
X124696328Y-92599950D02*
X124743947Y-92695188D01*
X124743947Y-92695188D02*
X124743947Y-92980902D01*
X124743947Y-92980902D02*
X124696328Y-93076140D01*
X124696328Y-93076140D02*
X124648709Y-93123760D01*
X124648709Y-93123760D02*
X124553471Y-93171379D01*
X124553471Y-93171379D02*
X124410614Y-93171379D01*
X125172519Y-92504712D02*
X125172519Y-93171379D01*
X125172519Y-92599950D02*
X125220138Y-92552331D01*
X125220138Y-92552331D02*
X125315376Y-92504712D01*
X125315376Y-92504712D02*
X125458233Y-92504712D01*
X125458233Y-92504712D02*
X125553471Y-92552331D01*
X125553471Y-92552331D02*
X125601090Y-92647569D01*
X125601090Y-92647569D02*
X125601090Y-93171379D01*
X113982042Y-94781379D02*
X113982042Y-93781379D01*
X113982042Y-94162331D02*
X114077280Y-94114712D01*
X114077280Y-94114712D02*
X114267756Y-94114712D01*
X114267756Y-94114712D02*
X114362994Y-94162331D01*
X114362994Y-94162331D02*
X114410613Y-94209950D01*
X114410613Y-94209950D02*
X114458232Y-94305188D01*
X114458232Y-94305188D02*
X114458232Y-94590902D01*
X114458232Y-94590902D02*
X114410613Y-94686140D01*
X114410613Y-94686140D02*
X114362994Y-94733760D01*
X114362994Y-94733760D02*
X114267756Y-94781379D01*
X114267756Y-94781379D02*
X114077280Y-94781379D01*
X114077280Y-94781379D02*
X113982042Y-94733760D01*
X114791566Y-94114712D02*
X115029661Y-94781379D01*
X115267756Y-94114712D02*
X115029661Y-94781379D01*
X115029661Y-94781379D02*
X114934423Y-95019474D01*
X114934423Y-95019474D02*
X114886804Y-95067093D01*
X114886804Y-95067093D02*
X114791566Y-95114712D01*
X113934423Y-96343760D02*
X114077280Y-96391379D01*
X114077280Y-96391379D02*
X114315375Y-96391379D01*
X114315375Y-96391379D02*
X114410613Y-96343760D01*
X114410613Y-96343760D02*
X114458232Y-96296140D01*
X114458232Y-96296140D02*
X114505851Y-96200902D01*
X114505851Y-96200902D02*
X114505851Y-96105664D01*
X114505851Y-96105664D02*
X114458232Y-96010426D01*
X114458232Y-96010426D02*
X114410613Y-95962807D01*
X114410613Y-95962807D02*
X114315375Y-95915188D01*
X114315375Y-95915188D02*
X114124899Y-95867569D01*
X114124899Y-95867569D02*
X114029661Y-95819950D01*
X114029661Y-95819950D02*
X113982042Y-95772331D01*
X113982042Y-95772331D02*
X113934423Y-95677093D01*
X113934423Y-95677093D02*
X113934423Y-95581855D01*
X113934423Y-95581855D02*
X113982042Y-95486617D01*
X113982042Y-95486617D02*
X114029661Y-95438998D01*
X114029661Y-95438998D02*
X114124899Y-95391379D01*
X114124899Y-95391379D02*
X114362994Y-95391379D01*
X114362994Y-95391379D02*
X114505851Y-95438998D01*
X115410613Y-95391379D02*
X114934423Y-95391379D01*
X114934423Y-95391379D02*
X114886804Y-95867569D01*
X114886804Y-95867569D02*
X114934423Y-95819950D01*
X114934423Y-95819950D02*
X115029661Y-95772331D01*
X115029661Y-95772331D02*
X115267756Y-95772331D01*
X115267756Y-95772331D02*
X115362994Y-95819950D01*
X115362994Y-95819950D02*
X115410613Y-95867569D01*
X115410613Y-95867569D02*
X115458232Y-95962807D01*
X115458232Y-95962807D02*
X115458232Y-96200902D01*
X115458232Y-96200902D02*
X115410613Y-96296140D01*
X115410613Y-96296140D02*
X115362994Y-96343760D01*
X115362994Y-96343760D02*
X115267756Y-96391379D01*
X115267756Y-96391379D02*
X115029661Y-96391379D01*
X115029661Y-96391379D02*
X114934423Y-96343760D01*
X114934423Y-96343760D02*
X114886804Y-96296140D01*
X115934423Y-96391379D02*
X116124899Y-96391379D01*
X116124899Y-96391379D02*
X116220137Y-96343760D01*
X116220137Y-96343760D02*
X116267756Y-96296140D01*
X116267756Y-96296140D02*
X116362994Y-96153283D01*
X116362994Y-96153283D02*
X116410613Y-95962807D01*
X116410613Y-95962807D02*
X116410613Y-95581855D01*
X116410613Y-95581855D02*
X116362994Y-95486617D01*
X116362994Y-95486617D02*
X116315375Y-95438998D01*
X116315375Y-95438998D02*
X116220137Y-95391379D01*
X116220137Y-95391379D02*
X116029661Y-95391379D01*
X116029661Y-95391379D02*
X115934423Y-95438998D01*
X115934423Y-95438998D02*
X115886804Y-95486617D01*
X115886804Y-95486617D02*
X115839185Y-95581855D01*
X115839185Y-95581855D02*
X115839185Y-95819950D01*
X115839185Y-95819950D02*
X115886804Y-95915188D01*
X115886804Y-95915188D02*
X115934423Y-95962807D01*
X115934423Y-95962807D02*
X116029661Y-96010426D01*
X116029661Y-96010426D02*
X116220137Y-96010426D01*
X116220137Y-96010426D02*
X116315375Y-95962807D01*
X116315375Y-95962807D02*
X116362994Y-95915188D01*
X116362994Y-95915188D02*
X116410613Y-95819950D01*
X116839185Y-96391379D02*
X116839185Y-95391379D01*
X116839185Y-95391379D02*
X117172518Y-96105664D01*
X117172518Y-96105664D02*
X117505851Y-95391379D01*
X117505851Y-95391379D02*
X117505851Y-96391379D01*
X117886804Y-95391379D02*
X118553470Y-95391379D01*
X118553470Y-95391379D02*
X117886804Y-96391379D01*
X117886804Y-96391379D02*
X118553470Y-96391379D01*
D12*
X126666666Y-78194819D02*
X126666666Y-78909104D01*
X126666666Y-78909104D02*
X126619047Y-79051961D01*
X126619047Y-79051961D02*
X126523809Y-79147200D01*
X126523809Y-79147200D02*
X126380952Y-79194819D01*
X126380952Y-79194819D02*
X126285714Y-79194819D01*
X127666666Y-79194819D02*
X127095238Y-79194819D01*
X127380952Y-79194819D02*
X127380952Y-78194819D01*
X127380952Y-78194819D02*
X127285714Y-78337676D01*
X127285714Y-78337676D02*
X127190476Y-78432914D01*
X127190476Y-78432914D02*
X127095238Y-78480533D01*
X115045833Y-83639819D02*
X114712500Y-83163628D01*
X114474405Y-83639819D02*
X114474405Y-82639819D01*
X114474405Y-82639819D02*
X114855357Y-82639819D01*
X114855357Y-82639819D02*
X114950595Y-82687438D01*
X114950595Y-82687438D02*
X114998214Y-82735057D01*
X114998214Y-82735057D02*
X115045833Y-82830295D01*
X115045833Y-82830295D02*
X115045833Y-82973152D01*
X115045833Y-82973152D02*
X114998214Y-83068390D01*
X114998214Y-83068390D02*
X114950595Y-83116009D01*
X114950595Y-83116009D02*
X114855357Y-83163628D01*
X114855357Y-83163628D02*
X114474405Y-83163628D01*
X115998214Y-83639819D02*
X115426786Y-83639819D01*
X115712500Y-83639819D02*
X115712500Y-82639819D01*
X115712500Y-82639819D02*
X115617262Y-82782676D01*
X115617262Y-82782676D02*
X115522024Y-82877914D01*
X115522024Y-82877914D02*
X115426786Y-82925533D01*
X126666666Y-84544819D02*
X126666666Y-85259104D01*
X126666666Y-85259104D02*
X126619047Y-85401961D01*
X126619047Y-85401961D02*
X126523809Y-85497200D01*
X126523809Y-85497200D02*
X126380952Y-85544819D01*
X126380952Y-85544819D02*
X126285714Y-85544819D01*
X127095238Y-84640057D02*
X127142857Y-84592438D01*
X127142857Y-84592438D02*
X127238095Y-84544819D01*
X127238095Y-84544819D02*
X127476190Y-84544819D01*
X127476190Y-84544819D02*
X127571428Y-84592438D01*
X127571428Y-84592438D02*
X127619047Y-84640057D01*
X127619047Y-84640057D02*
X127666666Y-84735295D01*
X127666666Y-84735295D02*
X127666666Y-84830533D01*
X127666666Y-84830533D02*
X127619047Y-84973390D01*
X127619047Y-84973390D02*
X127047619Y-85544819D01*
X127047619Y-85544819D02*
X127666666Y-85544819D01*
X119911905Y-83639819D02*
X119911905Y-82639819D01*
X119911905Y-82639819D02*
X120150000Y-82639819D01*
X120150000Y-82639819D02*
X120292857Y-82687438D01*
X120292857Y-82687438D02*
X120388095Y-82782676D01*
X120388095Y-82782676D02*
X120435714Y-82877914D01*
X120435714Y-82877914D02*
X120483333Y-83068390D01*
X120483333Y-83068390D02*
X120483333Y-83211247D01*
X120483333Y-83211247D02*
X120435714Y-83401723D01*
X120435714Y-83401723D02*
X120388095Y-83496961D01*
X120388095Y-83496961D02*
X120292857Y-83592200D01*
X120292857Y-83592200D02*
X120150000Y-83639819D01*
X120150000Y-83639819D02*
X119911905Y-83639819D01*
X121435714Y-83639819D02*
X120864286Y-83639819D01*
X121150000Y-83639819D02*
X121150000Y-82639819D01*
X121150000Y-82639819D02*
X121054762Y-82782676D01*
X121054762Y-82782676D02*
X120959524Y-82877914D01*
X120959524Y-82877914D02*
X120864286Y-82925533D01*
D11*
X128270000Y-77470000D02*
X127000000Y-77470000D01*
X128270000Y-77470000D02*
X128270000Y-76200000D01*
X116460000Y-75157071D02*
X116460000Y-74702929D01*
X117220000Y-75157071D02*
X117220000Y-74702929D01*
X119000000Y-75157071D02*
X119000000Y-74702929D01*
X119760000Y-75157071D02*
X119760000Y-74702929D01*
X121540000Y-75157071D02*
X121540000Y-74702929D01*
X122300000Y-75157071D02*
X122300000Y-74702929D01*
X124080000Y-75157071D02*
X124080000Y-74702929D01*
X124840000Y-75157071D02*
X124840000Y-74702929D01*
X126620000Y-75157071D02*
X126620000Y-74702929D01*
X127380000Y-75157071D02*
X127380000Y-74702929D01*
X113920000Y-75090000D02*
X113920000Y-74702929D01*
X114680000Y-75090000D02*
X114680000Y-74702929D01*
X113920000Y-72617071D02*
X113920000Y-72220000D01*
X114680000Y-72617071D02*
X114680000Y-72220000D01*
X116460000Y-72617071D02*
X116460000Y-72220000D01*
X117220000Y-72617071D02*
X117220000Y-72220000D01*
X119000000Y-72617071D02*
X119000000Y-72220000D01*
X119760000Y-72617071D02*
X119760000Y-72220000D01*
X121540000Y-72617071D02*
X121540000Y-72220000D01*
X122300000Y-72617071D02*
X122300000Y-72220000D01*
X124080000Y-72617071D02*
X124080000Y-72220000D01*
X124840000Y-72617071D02*
X124840000Y-72220000D01*
X126620000Y-72617071D02*
X126620000Y-72220000D01*
X127380000Y-72617071D02*
X127380000Y-72220000D01*
X112970000Y-72220000D02*
X128330000Y-72220000D01*
X115570000Y-72220000D02*
X115570000Y-70104000D01*
X118110000Y-72220000D02*
X118110000Y-70104000D01*
X120650000Y-72220000D02*
X120650000Y-70104000D01*
X123190000Y-72220000D02*
X123190000Y-70104000D01*
X125730000Y-72220000D02*
X125730000Y-70104000D01*
X128330000Y-72220000D02*
X128330000Y-70104000D01*
X112970000Y-70104000D02*
X112970000Y-72220000D01*
X128330000Y-70104000D02*
X112970000Y-70104000D01*
X114957776Y-80757500D02*
X115467224Y-80757500D01*
X114957776Y-81802500D02*
X115467224Y-81802500D01*
X128330000Y-86300000D02*
X112970000Y-86300000D01*
X128330000Y-86300000D02*
X128330000Y-88900000D01*
X112970000Y-86300000D02*
X112970000Y-91500000D01*
X128330000Y-88900000D02*
X125730000Y-88900000D01*
X125730000Y-88900000D02*
X125730000Y-91500000D01*
X128330000Y-90170000D02*
X128330000Y-91500000D01*
X128330000Y-91500000D02*
X127000000Y-91500000D01*
X125730000Y-91500000D02*
X112970000Y-91500000D01*
X122310000Y-82015000D02*
X122310000Y-80545000D01*
X122310000Y-80545000D02*
X119850000Y-80545000D01*
X119850000Y-82015000D02*
X122310000Y-82015000D01*
%LPC*%
D13*
X120650000Y-95250000D03*
D14*
X127000000Y-76200000D03*
D15*
X127000000Y-73660000D03*
X124460000Y-76200000D03*
X124460000Y-73660000D03*
X121920000Y-76200000D03*
X121920000Y-73660000D03*
X119380000Y-76200000D03*
X119380000Y-73660000D03*
X116840000Y-76200000D03*
X116840000Y-73660000D03*
X114300000Y-76200000D03*
X114300000Y-73660000D03*
D16*
X114300000Y-81280000D03*
X116125000Y-81280000D03*
D14*
X127000000Y-90170000D03*
D15*
X127000000Y-87630000D03*
X124460000Y-90170000D03*
X124460000Y-87630000D03*
X121920000Y-90170000D03*
X121920000Y-87630000D03*
X119380000Y-90170000D03*
X119380000Y-87630000D03*
X116840000Y-90170000D03*
X116840000Y-87630000D03*
X114300000Y-90170000D03*
X114300000Y-87630000D03*
D17*
X121525000Y-81280000D03*
X119775000Y-81280000D03*
%LPD*%
M02*
